<svg width="178" height="40" viewBox="0 0 178 40" fill="none" xmlns="http://www.w3.org/2000/svg">
<g clip-path="url(#clip0_838_3210)">
<path d="M163.668 20.3866C165.14 18.5442 167.089 17.9735 168.93 18.3403C169.695 17.6956 170.602 16.9587 171.712 16.0636C171.788 16.0026 171.862 15.9405 171.938 15.8793L171.933 15.8771C168.277 14.1436 164.445 15.0803 162.251 17.4779C162.154 17.5906 162.054 17.7017 161.96 17.8198C161.851 17.9511 161.735 18.0915 161.614 18.2209C161.745 18.3777 162.556 19.32 163.634 20.4301C163.644 20.4157 163.658 20.3996 163.667 20.3869L163.668 20.3866Z" fill="#0075B1"/>
<path d="M161.626 18.2129C161.609 18.2312 161.636 18.2007 161.623 18.219C158.8 14.6168 155.713 8.75088 160.313 3.64044C156.864 6.5996 153.98 11.5297 153.065 15.9622C150.989 25.9958 156.075 31.7731 160.581 34.6017C156.032 30.73 157.355 23.5079 161.626 18.2126L161.626 18.2129Z" fill="#7BC224"/>
<path d="M161.623 18.2187L161.582 18.2686C161.596 18.2489 161.609 18.2309 161.626 18.2126C166.19 12.6988 174.259 6.36024 171.778 2.73395C170.19 0.418654 166.657 0.304787 164.573 0.980508C164.496 1.01237 164.416 1.04589 164.337 1.08246C162.852 1.75237 161.498 2.58767 160.313 3.64017C155.713 8.75061 158.799 14.6166 161.623 18.2187H161.623Z" fill="#D3DA00"/>
<path d="M171.938 15.8793C171.862 15.9408 171.788 16.0026 171.712 16.0633C170.602 16.9587 169.695 17.6957 168.93 18.3404C178.95 20.3113 177.717 35.7975 166.679 36.3263C165.236 36.3984 163.779 36.0892 162.877 35.775C163.005 35.826 163.194 35.8939 163.306 35.934C169.965 38.2064 176.036 34.7738 177.555 28.9638C178.981 23.5176 176.944 18.2597 171.938 15.8796V15.8793Z" fill="#FF4D11"/>
<path d="M164.574 0.980487C166.658 0.304766 170.19 0.418633 171.779 2.73393C174.15 6.1962 166.882 12.1397 162.251 17.4776C164.445 15.08 168.277 14.1433 171.931 15.8768C171.931 15.8768 171.933 15.8768 171.938 15.8788C185.185 5.07055 173.531 -2.85497 164.574 0.979933V0.980487Z" fill="#009CDB"/>
<path d="M161.647 26.6169C161.642 26.6088 161.636 26.6011 161.636 26.6011C159.853 23.3699 160.167 20.3764 161.643 18.2351C161.653 18.2475 161.667 18.2633 161.684 18.2833C161.652 18.2434 161.63 18.2193 161.626 18.217L161.623 18.2193C161.623 18.2193 161.626 18.217 161.626 18.2132L161.623 18.217L161.62 18.2193C157.358 23.5084 156.035 30.7172 160.57 34.592C160.632 34.6324 160.697 34.6751 160.758 34.7186C161.097 34.9245 161.809 35.34 162.539 35.6392L162.541 35.6415C158.824 34.0872 159.947 29.663 161.647 26.6172V26.6169ZM161.621 18.2168V18.219L161.626 18.2129L161.621 18.2168Z" fill="#009CDB"/>
<path d="M170.114 25.9118C170.284 25.3782 170.391 24.5977 170.369 24.1381C170.41 24.6942 169.903 27.1325 167.82 27.7808C165.594 28.4753 163.283 26.8089 162.822 24.7196C162.382 25.4186 161.937 26.1185 161.647 26.6166C163.815 29.6068 168.7 30.0841 170.114 25.9115V25.9118Z" fill="#FF4D11"/>
<path d="M162.821 24.7216C162.463 23.2616 162.712 21.6112 163.635 20.4304C162.594 19.3613 161.814 18.4462 161.642 18.2415C160.167 20.3805 159.854 23.3741 161.635 26.5972C161.635 26.5972 161.642 26.6089 161.647 26.6169C161.937 26.1188 162.382 25.4209 162.821 24.7216Z" fill="#0075B1"/>
<path d="M169.9 18.5805C169.828 18.5625 169.754 18.5404 169.679 18.519C169.623 18.5043 169.565 18.4866 169.507 18.4722C169.443 18.4517 169.377 18.4379 169.316 18.4234C169.188 18.3952 169.062 18.3644 168.93 18.3403L168.877 18.3608C168.877 18.3608 167.098 19.8248 165.514 21.4862C166.234 20.9075 167.199 20.6667 168.149 20.9288C168.98 21.1546 169.629 21.7123 170.009 22.4218C170.033 22.4664 170.054 22.5121 170.074 22.5545C170.087 22.5819 170.103 22.6063 170.113 22.6324C170.141 22.6958 170.163 22.7584 170.19 22.8221C170.332 23.2225 170.4 23.6547 170.373 24.0966C170.373 24.1462 170.373 24.198 170.369 24.2487C170.373 24.7169 170.268 25.4184 170.113 25.9112C168.7 30.0839 163.815 29.6065 161.647 26.6163C159.947 29.6622 158.824 34.0867 162.546 35.644C162.622 35.678 162.75 35.7229 162.909 35.7825C163.814 36.0928 165.253 36.3959 166.679 36.326C177.348 35.8152 178.855 21.3349 169.9 18.5805H169.9Z" fill="#FF7A00"/>
<path d="M165.522 21.4782C166.428 20.5349 167.396 19.6331 168.93 18.3404C167.089 17.9736 165.14 18.5443 163.668 20.3866C163.658 20.3997 163.645 20.4155 163.634 20.4299C164.085 20.8928 164.586 21.3879 165.113 21.8705C165.239 21.7276 165.376 21.5946 165.522 21.4779L165.522 21.4782Z" fill="#FF4D11"/>
<path d="M165.117 21.8708C164.582 21.3851 164.077 20.885 163.625 20.4179L163.632 20.4284C162.699 21.599 162.463 23.2615 162.821 24.7219C163.391 23.9104 164.369 22.6778 164.966 22.0616C165.012 21.9915 165.063 21.9314 165.117 21.871V21.8708Z" fill="#FF4D11"/>
<path d="M170.376 23.8727C170.38 24.1423 170.346 24.4163 170.278 24.6878H170.275V24.6939C169.847 26.3268 168.203 27.2995 166.602 26.8621H166.6H166.597C164.993 26.4232 164.041 24.7374 164.469 23.1023C164.568 22.713 164.741 22.3672 164.962 22.063C164.367 22.6792 163.391 23.9104 162.82 24.7213V24.7197L162.817 24.7213L162.82 24.7233L162.822 24.7194C163.283 26.8086 165.593 28.4753 167.82 27.7808C169.794 27.1646 170.35 24.9474 170.369 24.2426C170.373 24.4038 170.36 24.5933 170.336 24.8003C170.397 24.3753 170.391 24.0437 170.376 23.8725L170.376 23.8727Z" fill="#FF7A00"/>
<path d="M10.6261 33.0987H10.5375C10.3748 33.862 9.93613 34.4939 9.2201 34.9951C8.50407 35.4963 7.55595 35.747 6.37522 35.747C5.45991 35.747 4.61157 35.5694 3.82938 35.2154C3.04665 34.8613 2.37156 34.341 1.80356 33.6545C1.23529 32.9685 0.792544 32.116 0.475331 31.0981C0.157847 30.0803 -0.000488281 28.9078 -0.000488281 27.5805C-0.000488281 26.2684 0.161643 25.1034 0.486447 24.0855C0.81098 23.0673 1.26863 22.2115 1.85914 21.5178C2.4491 20.8244 3.15754 20.3002 3.98419 19.9458C4.81057 19.5918 5.73293 19.4142 6.75153 19.4142C8.13887 19.4142 9.31201 19.7267 10.2718 20.3509C11.231 20.9751 11.9763 21.8439 12.5077 22.9571L10.4711 24.1755C10.1755 23.4333 9.71815 22.8316 9.09837 22.3697C8.47858 21.9076 7.69612 21.6766 6.75181 21.6766C5.52661 21.6766 4.54135 22.0777 3.7963 22.8801C3.05072 23.6824 2.6782 24.818 2.6782 26.2864V28.8751C2.6782 30.3437 3.05072 31.4791 3.7963 32.2814C4.54135 33.0838 5.52661 33.4852 6.75181 33.4852C7.23874 33.4852 7.70399 33.4209 8.14646 33.2918C8.58947 33.163 8.97663 32.9738 9.30876 32.7233C9.64088 32.4731 9.90658 32.1623 10.1056 31.7908C10.3049 31.4192 10.4044 30.9835 10.4044 30.4828V29.2544H7.21651V27.0602H12.8173V35.4758H10.6256V33.099L10.6261 33.0987Z" fill="white"/>
<path d="M15.6733 35.4755V23.712H18.0863V25.9741H18.1972C18.3591 25.3713 18.6985 24.8429 19.2155 24.3905C19.732 23.9381 20.4475 23.712 21.3628 23.712H22.0051V26.0872H21.0532C20.0934 26.0872 19.3595 26.2456 18.8503 26.5623C18.3412 26.879 18.0863 27.3466 18.0863 27.965V35.4755H15.6733Z" fill="white"/>
<path d="M30.6828 33.5301H30.5942C30.4909 33.8166 30.3542 34.0956 30.1845 34.3671C30.0148 34.6386 29.8003 34.8763 29.5422 35.0796C29.2838 35.2833 28.974 35.4456 28.6125 35.5659C28.2506 35.6864 27.8339 35.7471 27.3619 35.7471C26.1662 35.7471 25.2401 35.355 24.5834 34.5707C23.9265 33.7869 23.5981 32.6632 23.5981 31.2001V23.7121H26.0111V30.8832C26.0111 32.7081 26.7489 33.6204 28.2251 33.6204C28.535 33.6204 28.8376 33.5789 29.1328 33.496C29.4278 33.4132 29.6897 33.2891 29.9188 33.1229C30.1474 32.9572 30.3317 32.7461 30.4722 32.4892C30.6123 32.233 30.6826 31.9315 30.6826 31.5844V23.7118H33.0955V35.4755H30.6826V33.5298L30.6828 33.5301Z" fill="white"/>
<path d="M41.1322 33.6204C41.9735 33.6204 42.6448 33.3453 43.1469 32.7948C43.6482 32.2446 43.8995 31.5168 43.8995 30.612V28.5759C43.8995 27.6711 43.6482 26.9436 43.1469 26.3931C42.6448 25.8426 41.9735 25.5675 41.1322 25.5675C40.3939 25.5675 39.7741 25.7522 39.2726 26.1215C38.7707 26.4914 38.5199 26.9776 38.5199 27.5808V31.6077C38.5199 32.2111 38.7707 32.6973 39.2726 33.0669C39.7741 33.4365 40.3939 33.621 41.1322 33.621V33.6204ZM36.1069 23.7118H38.5202V25.6575H38.6308C38.8813 24.9488 39.2913 24.4019 39.8595 24.0174C40.4275 23.6328 41.0953 23.4406 41.8629 23.4406C43.3242 23.4406 44.4532 23.98 45.2503 25.058C46.0471 26.1362 46.4456 27.6481 46.4456 29.5938C46.4456 31.5395 46.0471 33.0514 45.2503 34.1296C44.4529 35.2079 43.3242 35.747 41.8629 35.747C41.0953 35.747 40.4275 35.5509 39.8595 35.1589C39.2913 34.7668 38.8813 34.2238 38.6308 33.5301H38.5202V40H36.1069V23.7121V23.7118Z" fill="white"/>
<path d="M53.2861 33.6883C54.1124 33.6883 54.7767 33.4295 55.2785 32.9123C55.7801 32.3947 56.0312 31.6187 56.0312 30.5837V28.6036C56.0312 27.5691 55.7801 26.7928 55.2785 26.2753C54.7767 25.7578 54.1124 25.499 53.2861 25.499C52.4594 25.499 51.7952 25.7578 51.2939 26.2753C50.7917 26.7928 50.541 27.5691 50.541 28.6036V30.5837C50.541 31.6187 50.7917 32.3947 51.2939 32.9123C51.7954 33.4295 52.4594 33.6883 53.2861 33.6883ZM53.2861 35.747C52.489 35.747 51.7621 35.6035 51.1054 35.3173C50.4485 35.0308 49.8913 34.62 49.434 34.0844C48.9766 33.5495 48.6222 32.9006 48.3714 32.139C48.1201 31.3774 47.9951 30.5294 47.9951 29.5938C47.9951 28.659 48.1201 27.8104 48.3714 27.0491C48.6222 26.2877 48.9766 25.6389 49.434 25.1034C49.8913 24.5684 50.4485 24.157 51.1054 23.8705C51.7621 23.5843 52.489 23.4408 53.2861 23.4408C54.0832 23.4408 54.81 23.5843 55.4667 23.8705C56.1234 24.157 56.6805 24.5684 57.1382 25.1034C57.5955 25.6389 57.9496 26.2875 58.2007 27.0491C58.4517 27.8107 58.5773 28.659 58.5773 29.5938C58.5773 30.5294 58.4517 31.3774 58.2007 32.139C57.9496 32.9006 57.5955 33.5492 57.1382 34.0844C56.6805 34.62 56.1234 35.0311 55.4667 35.3173C54.81 35.6035 54.0832 35.747 53.2861 35.747Z" fill="white"/>
<path d="M63.4914 33.2813H67.7862C68.4356 33.2813 68.945 33.1081 69.3137 32.761C69.6825 32.4144 69.8671 31.9165 69.8671 31.268V30.4989C69.8671 29.8503 69.6825 29.3527 69.3137 29.0056C68.9447 28.659 68.4356 28.4856 67.7862 28.4856H63.4914V33.2813ZM63.4914 26.3589H67.3657C67.9855 26.3589 68.4649 26.1969 68.8046 25.8724C69.144 25.5486 69.3137 25.0845 69.3137 24.4814V23.7575C69.3137 23.1543 69.144 22.6908 68.8046 22.3661C68.4649 22.042 67.9852 21.8799 67.3657 21.8799H63.4914V26.3592V26.3589ZM60.9897 19.6854H67.8304C69.1145 19.6854 70.1217 20.0553 70.8524 20.7939C71.583 21.533 71.9482 22.521 71.9482 23.7572C71.9482 24.3454 71.8669 24.8471 71.7048 25.2616C71.5421 25.6763 71.3358 26.016 71.0847 26.2794C70.8336 26.5435 70.5457 26.7396 70.2215 26.8676C69.8966 26.9959 69.5794 27.0751 69.2695 27.1053V27.2411C69.5794 27.2563 69.9227 27.3314 70.299 27.4671C70.6753 27.6029 71.0259 27.8179 71.3504 28.1118C71.6749 28.4058 71.9482 28.7831 72.1695 29.243C72.391 29.7032 72.5016 30.265 72.5016 30.9283C72.5016 31.5616 72.4021 32.1576 72.2028 32.7153C72.0035 33.2735 71.727 33.7559 71.3726 34.1631C71.0185 34.5704 70.5978 34.8909 70.1108 35.1248C69.6239 35.3589 69.0925 35.4752 68.5169 35.4752H60.9897V19.6851V19.6854Z" fill="white"/>
<path d="M79.4755 33.6883C80.3019 33.6883 80.9661 33.4295 81.468 32.9123C81.9696 32.3947 82.2206 31.6187 82.2206 30.5837V28.6036C82.2206 27.5691 81.9696 26.7928 81.468 26.2753C80.9661 25.7578 80.3019 25.499 79.4755 25.499C78.6489 25.499 77.9846 25.7578 77.4833 26.2753C76.9812 26.7928 76.7304 27.5691 76.7304 28.6036V30.5837C76.7304 31.6187 76.9812 32.3947 77.4833 32.9123C77.9846 33.4295 78.6489 33.6883 79.4755 33.6883ZM79.4755 35.747C78.6784 35.747 77.9513 35.6035 77.2949 35.3173C76.638 35.0308 76.0808 34.62 75.6234 34.0844C75.1658 33.5495 74.8117 32.9006 74.5609 32.139C74.3098 31.3774 74.1846 30.5294 74.1846 29.5938C74.1846 28.659 74.3098 27.8104 74.5609 27.0491C74.8117 26.2877 75.166 25.6389 75.6234 25.1034C76.0808 24.5684 76.638 24.157 77.2949 23.8705C77.9513 23.5843 78.6784 23.4408 79.4755 23.4408C80.2723 23.4408 80.9992 23.5843 81.6562 23.8705C82.3125 24.157 82.8697 24.5684 83.3276 25.1034C83.785 25.6389 84.1394 26.2875 84.3901 27.0491C84.6412 27.8107 84.7667 28.659 84.7667 29.5938C84.7667 30.5294 84.6412 31.3774 84.3901 32.139C84.1391 32.9006 83.7847 33.5492 83.3276 34.0844C82.87 34.62 82.3128 35.0311 81.6562 35.3173C80.9992 35.6035 80.2723 35.747 79.4755 35.747Z" fill="white"/>
<path d="M90.124 35.4755C89.2827 35.4755 88.648 35.2533 88.2199 34.8084C87.7915 34.3634 87.5779 33.7337 87.5779 32.9192V25.7256H85.7847V23.7123H86.7588C87.1574 23.7123 87.4339 23.6217 87.589 23.4408C87.7438 23.2599 87.8213 22.9657 87.8213 22.5587V20.4999H89.9909V23.7126H92.4041V25.7259H89.9909V33.4625H92.2271V35.4758H90.124V35.4755Z" fill="white"/>
<path d="M94.5736 23.7121H96.9865V35.4755H94.5736V23.7121ZM95.7909 21.6079C95.289 21.6079 94.9238 21.4874 94.695 21.246C94.4659 21.005 94.3521 20.6956 94.3521 20.3185V19.9339C94.3521 19.5572 94.4662 19.248 94.695 19.0064C94.9238 18.7654 95.289 18.6443 95.7909 18.6443C96.2927 18.6443 96.6541 18.7654 96.8756 19.0064C97.0972 19.248 97.2078 19.5572 97.2078 19.9339V20.3185C97.2078 20.6956 97.0969 21.005 96.8756 21.246C96.6541 21.4874 96.2925 21.6079 95.7909 21.6079Z" fill="white"/>
<path d="M104.447 35.747C103.621 35.747 102.883 35.6035 102.233 35.3171C101.584 35.0309 101.038 34.6197 100.595 34.0845C100.152 33.5492 99.8126 32.9004 99.5767 32.1388C99.3403 31.3774 99.2227 30.5291 99.2227 29.5938C99.2227 28.6588 99.3406 27.8104 99.5767 27.0488C99.8129 26.2875 100.153 25.6389 100.595 25.1034C101.038 24.5681 101.584 24.157 102.233 23.8705C102.883 23.5841 103.62 23.4406 104.447 23.4406C105.598 23.4406 106.543 23.7046 107.281 24.2324C108.019 24.7604 108.557 25.4616 108.897 26.3363L106.904 27.2865C106.742 26.7435 106.458 26.3102 106.052 25.9858C105.646 25.6616 105.111 25.4993 104.447 25.4993C103.562 25.4993 102.894 25.7811 102.444 26.3454C101.993 26.9095 101.768 27.6425 101.768 28.5446V30.6427C101.768 31.5451 101.993 32.2784 102.444 32.8425C102.894 33.4065 103.562 33.6883 104.447 33.6883C105.156 33.6883 105.72 33.5113 106.141 33.1569C106.561 32.8029 106.897 32.331 107.148 31.7429L108.985 32.7383C108.602 33.7074 108.026 34.4513 107.258 34.9694C106.491 35.4877 105.554 35.747 104.447 35.747H104.447Z" fill="white"/>
<path d="M115.118 22.3093L113.612 21.563L115.627 17.4909L117.73 18.5315L115.118 22.3096L115.118 22.3093ZM114.41 33.8695C115.162 33.8695 115.782 33.6996 116.269 33.3605C116.756 33.0211 117 32.5651 117 31.9916V30.295H114.963C113.295 30.295 112.461 30.823 112.461 31.8786V32.2856C112.461 32.8139 112.635 33.2098 112.982 33.4733C113.328 33.7373 113.804 33.8692 114.41 33.8692V33.8695ZM119.28 35.4755C118.645 35.4755 118.158 35.291 117.819 34.9211C117.479 34.5518 117.272 34.0806 117.199 33.5074H117.088C116.867 34.2465 116.461 34.8048 115.871 35.1816C115.28 35.5583 114.564 35.747 113.723 35.747C112.528 35.747 111.609 35.4303 110.967 34.797C110.325 34.1637 110.004 33.3115 110.004 32.2407C110.004 31.0643 110.421 30.1819 111.255 29.5938C112.089 29.0056 113.31 28.7116 114.919 28.7116H117V27.7162C117 26.9923 116.808 26.4346 116.424 26.042C116.04 25.65 115.442 25.4538 114.631 25.4538C113.952 25.4538 113.398 25.6048 112.971 25.9063C112.542 26.208 112.181 26.5925 111.886 27.0599L110.447 25.7251C110.83 25.0615 111.369 24.5149 112.063 24.0852C112.756 23.6552 113.664 23.4405 114.786 23.4405C116.276 23.4405 117.42 23.7951 118.217 24.5038C119.014 25.2128 119.413 26.231 119.413 27.5577V33.4622H120.63V35.4755H119.28Z" fill="white"/>
<path d="M122.556 35.4755V23.712H124.969V25.9741H125.08C125.242 25.3713 125.581 24.8429 126.098 24.3905C126.615 23.9381 127.33 23.712 128.245 23.712H128.887V26.0872H127.936C126.976 26.0872 126.242 26.2456 125.733 26.5623C125.223 26.879 124.969 27.3466 124.969 27.965V35.4755H122.556H122.556Z" fill="white"/>
<path d="M130.593 23.7121H133.006V35.4755H130.593V23.7121ZM131.81 21.6079C131.308 21.6079 130.943 21.4874 130.714 21.246C130.485 21.005 130.371 20.6956 130.371 20.3185V19.9339C130.371 19.5572 130.486 19.248 130.714 19.0064C130.943 18.7654 131.308 18.6443 131.81 18.6443C132.312 18.6443 132.673 18.7654 132.895 19.0064C133.116 19.248 133.227 19.5572 133.227 19.9339V20.3185C133.227 20.6956 133.116 21.005 132.895 21.246C132.673 21.4874 132.312 21.6079 131.81 21.6079Z" fill="white"/>
<path d="M140.532 33.6883C141.359 33.6883 142.023 33.4295 142.525 32.9123C143.026 32.3947 143.277 31.6187 143.277 30.5837V28.6036C143.277 27.5691 143.026 26.7928 142.525 26.2753C142.023 25.7578 141.359 25.499 140.532 25.499C139.706 25.499 139.041 25.7578 138.54 26.2753C138.038 26.7928 137.787 27.5691 137.787 28.6036V30.5837C137.787 31.6187 138.038 32.3947 138.54 32.9123C139.042 33.4295 139.706 33.6883 140.532 33.6883ZM140.532 35.747C139.735 35.747 139.008 35.6035 138.352 35.3173C137.695 35.0308 137.137 34.62 136.68 34.0844C136.223 33.5495 135.868 32.9006 135.618 32.139C135.366 31.3774 135.241 30.5294 135.241 29.5938C135.241 28.659 135.366 27.8104 135.618 27.0491C135.868 26.2877 136.223 25.6389 136.68 25.1034C137.137 24.5684 137.695 24.157 138.352 23.8705C139.008 23.5843 139.735 23.4408 140.532 23.4408C141.329 23.4408 142.056 23.5843 142.713 23.8705C143.369 24.157 143.927 24.5684 144.384 25.1034C144.842 25.6389 145.196 26.2875 145.447 27.0491C145.698 27.8107 145.823 28.659 145.823 29.5938C145.823 30.5294 145.698 31.3774 145.447 32.139C145.196 32.9006 144.842 33.5492 144.384 34.0844C143.927 34.62 143.369 35.0311 142.713 35.3173C142.056 35.6035 141.329 35.747 140.532 35.747Z" fill="white"/>
</g>
<defs>
<clipPath id="clip0_838_3210">
<rect width="178" height="40" fill="white"/>
</clipPath>
</defs>
</svg>
