<svg width="20" height="20" viewBox="0 0 20 20" fill="none" xmlns="http://www.w3.org/2000/svg">
<path fill-rule="evenodd" clip-rule="evenodd" d="M20 10C20 4.47715 15.5228 0 10 0C4.47715 0 0 4.47715 0 10C0 15.5228 4.47715 20 10 20C15.5228 20 20 15.5228 20 10ZM7.25807 8.28835H5.16853V14.9518H7.25807V8.28835ZM7.42657 6.21328C7.42657 6.88336 6.88336 7.42657 6.21328 7.42657C5.5432 7.42657 5 6.88336 5 6.21328C5 5.54321 5.5432 5 6.21328 5C6.88336 5 7.42657 5.54321 7.42657 6.21328ZM12.6697 8.12472C12.7516 8.12954 12.8334 8.13435 12.9105 8.14398C14.2441 8.28842 15 9.16468 15 10.6524V15H12.9105V11.1242V11.1146C12.9105 11.0183 12.8864 9.97354 11.7309 9.97354C11.3409 9.97354 10.9942 10.1469 10.8017 10.4935C10.6012 10.8603 10.6048 11.2799 10.6082 11.6855C10.6086 11.7378 10.6091 11.7899 10.6091 11.8416V12.9393V14.9711H8.51952V8.30768H10.5176V9.19838C10.5176 9.19838 10.5465 9.15024 10.6091 9.06839C10.8402 8.76988 11.4998 8.07658 12.6697 8.12472Z" fill="white"/>
</svg>
