<svg width="16" height="16" viewBox="0 0 16 16" fill="none" xmlns="http://www.w3.org/2000/svg">
<path d="M3.61292 5.26136H0.269642V15.9229H3.61292V5.26136Z" fill="white"/>
<path d="M12.6567 5.03037C12.5335 5.01496 12.4025 5.00726 12.2716 4.99956C10.3996 4.92252 9.34427 6.03181 8.97451 6.50942C8.87436 6.64038 8.82814 6.71741 8.82814 6.71741V5.29228H5.63123V15.9538H8.97451C8.97451 14.8676 8.97451 13.7891 8.97451 12.7029C8.97451 12.1175 8.97451 11.532 8.97451 10.9466C8.97451 10.2225 8.92058 9.45212 9.28264 8.78963C9.59078 8.23498 10.1454 7.95766 10.7694 7.95766C12.6182 7.95766 12.6567 9.62929 12.6567 9.78336C12.6567 9.79107 12.6567 9.79877 12.6567 9.79877V16H16V9.04384C16 6.66349 14.7906 5.26147 12.6567 5.03037Z" fill="white"/>
<path d="M1.94125 3.88251C3.01338 3.88251 3.88251 3.01338 3.88251 1.94126C3.88251 0.869129 3.01338 0 1.94125 0C0.869126 0 0 0.869129 0 1.94126C0 3.01338 0.869126 3.88251 1.94125 3.88251Z" fill="white"/>
</svg>
