<svg width="344" height="344" viewBox="0 0 344 344" fill="none" xmlns="http://www.w3.org/2000/svg">
<path fill-rule="evenodd" clip-rule="evenodd" d="M172 139.75C189.811 139.75 204.25 154.189 204.25 172C204.25 189.811 189.811 204.25 172 204.25C154.189 204.25 139.75 189.811 139.75 172C139.75 154.189 154.189 139.75 172 139.75ZM172 161.25C166.063 161.25 161.25 166.063 161.25 172C161.25 177.937 166.063 182.75 172 182.75C177.937 182.75 182.75 177.937 182.75 172C182.75 166.063 177.937 161.25 172 161.25Z" fill="white"/>
<path fill-rule="evenodd" clip-rule="evenodd" d="M171.622 90.4617C184.879 75.4114 207.334 71.2629 225.372 81.6748C243.412 92.0906 251.046 113.613 244.636 132.622C264.304 136.573 279.12 153.951 279.122 174.782L279.08 176.724C278.191 196.687 263.682 213.107 244.625 216.932C251.041 235.942 243.413 257.46 225.372 267.879L223.661 268.813C205.927 278.022 184.462 273.663 171.622 259.071C158.781 273.665 137.307 278.027 119.573 268.813L117.872 267.879C99.8319 257.462 92.1858 235.941 98.5977 216.932C79.5492 213.1 65.0531 196.682 64.1641 176.724L64.1221 174.782C64.1239 153.951 78.9406 136.573 98.6082 132.622C92.398 114.207 99.3706 93.4428 116.213 82.6931L117.872 81.6853C135.91 71.2731 158.365 75.4105 171.622 90.4617ZM214.622 100.298C205.621 95.1027 194.376 97.1535 187.758 104.666L171.622 122.985L155.487 104.666C149.281 97.6211 139.008 95.3795 130.333 99.406L128.622 100.298C119.625 105.493 115.772 116.26 118.974 125.756L126.785 148.894L102.839 153.702C93.0152 155.677 85.6237 164.395 85.6221 174.782C85.6239 185.166 93.0128 193.875 102.839 195.852L126.785 200.66L118.974 223.808C115.774 233.299 119.622 244.058 128.622 249.255C137.614 254.446 148.849 252.403 155.476 244.877L171.622 226.527L187.768 244.877C194.393 252.403 205.628 254.448 214.622 249.255L216.249 248.216C224.068 242.719 227.263 232.712 224.259 223.808L216.438 200.649L240.395 195.852C250.224 193.878 257.62 185.168 257.622 174.782C257.62 164.391 250.226 155.676 240.405 153.702L216.449 148.894L224.259 125.746C227.46 116.246 223.614 105.49 214.622 100.298Z" fill="white"/>
<path fill-rule="evenodd" clip-rule="evenodd" d="M64.5 21.5H279.5V0H344V64.5H322.5V279.5H344V344H279.5V322.5H64.5V344H0V279.5H21.5V64.5H0V0H64.5V21.5ZM21.5 322.5H43V301H21.5V322.5ZM301 322.5H322.5V301H301V322.5ZM64.5 64.5H43V279.5H64.5V301H279.5V279.5H301V64.5H279.5V43H64.5V64.5ZM21.5 43H43V21.5H21.5V43ZM301 43H322.5V21.5H301V43Z" fill="white"/>
</svg>
