<svg width="32" height="32" viewBox="0 0 32 32" fill="none" xmlns="http://www.w3.org/2000/svg">
<rect width="32" height="32" fill="#6C6C6C"/>
<path d="M32 22.0232V24.9295C31.8175 24.9471 31.63 24.9561 31.4375 24.9561C28.0019 24.9561 26.0677 22.0945 25.9842 18.5137C25.9818 18.3753 25.9827 18.2377 25.9858 18.1011C25.9877 18.0159 25.9911 17.931 25.9954 17.8463C25.9975 17.8011 25.9996 17.7586 26.0031 17.7113C26.0064 17.6638 26.0098 17.6165 26.0139 17.5691C26.1376 15.9881 26.6465 14.5813 27.4865 13.5403C28.0083 12.8942 28.6354 12.4018 29.3466 12.0726C29.9712 11.7582 30.8491 11.5845 31.5647 11.5845H31.5956C31.7305 11.5845 31.8654 11.589 32 11.598V12.3976C31.8578 12.3587 31.7056 12.3377 31.5438 12.335C30.0964 12.3649 29.2339 14.0985 29.1265 16.5005H32V17.1774H29.0616L29.0607 17.178C28.9282 19.5183 30.2091 21.4962 32 22.0232ZM26.1286 7.64479L26.1538 7.63922V7.44385H21.0004L16.2153 18.6903L11.4303 7.44385H5.87687V7.63922L5.90175 7.64479C6.84238 7.8571 7.32 8.17372 7.32 9.3156V22.6837C7.32 23.8256 6.84056 24.1422 5.89994 24.3545L5.875 24.3601V24.5561H9.64281V24.3607L9.61788 24.3552C8.67725 24.1428 8.19969 23.8262 8.19969 22.6843V10.091L14.3466 24.5561H14.6953L21.0213 9.6876V23.0145C20.9408 23.9164 20.4675 24.1948 19.6157 24.3872L19.5905 24.393V24.5868H26.1538V24.393L26.1286 24.3872C25.2759 24.1948 24.7913 23.9164 24.7107 23.0145L24.7064 9.3156H24.7107C24.7107 8.17372 25.1882 7.8571 26.1286 7.64479Z" fill="white"/>
</svg>
