<svg width="104" height="104" viewBox="0 0 104 104" fill="none" xmlns="http://www.w3.org/2000/svg">
<rect width="104" height="104" rx="52" fill="white"/>
<path d="M104 71.5749V81.0202C103.407 81.0775 102.797 81.1067 102.172 81.1067C91.0061 81.1067 84.72 71.8064 84.4488 60.169C84.4409 59.7191 84.4439 59.272 84.4539 58.828C84.46 58.5511 84.471 58.2751 84.485 58C84.4919 57.853 84.4988 57.7148 84.51 57.5611C84.5209 57.4069 84.5319 57.2529 84.5451 57.099C84.9471 51.9607 86.6011 47.3886 89.3311 44.0055C91.027 41.9054 93.0652 40.3054 95.3763 39.2353C97.4064 38.2134 100.259 37.6491 102.585 37.6491H102.686C103.124 37.6492 103.563 37.6638 104 37.693V40.2916C103.538 40.165 103.043 40.097 102.517 40.0883C97.8134 40.1853 95.0103 45.8196 94.6611 53.6259H104V55.826H94.4503L94.4472 55.828C94.0166 63.434 98.1797 69.8619 104 71.5749ZM84.9178 24.8449L84.9999 24.8269V24.1919H68.2514L52.6998 60.743L37.1483 24.1919H19.0998V24.8269L19.1807 24.8449C22.2377 25.535 23.79 26.564 23.79 30.2751V73.7215C23.79 77.4326 22.2318 78.4616 19.1748 79.1516L19.0938 79.1697V79.8067H31.3391V79.1717L31.2581 79.1537C28.2011 78.4636 26.649 77.4346 26.649 73.7235V32.7953L46.6265 79.8067H47.7598L68.3193 31.4841V74.7964C68.0574 77.7277 66.5194 78.6327 63.7512 79.2577L63.6691 79.2768V79.9066H84.9999V79.2768L84.9178 79.2577C82.1468 78.6327 80.5718 77.7277 80.3097 74.7964L80.2957 30.2751H80.3097C80.3097 26.564 81.8618 25.535 84.9178 24.8449Z" fill="black"/>
</svg>
